<?xml version="1.0" ?><!DOCTYPE svg  PUBLIC '-//W3C//DTD SVG 1.1//EN'  'http://www.w3.org/Graphics/SVG/1.1/DTD/svg11.dtd'><svg enable-background="new 0 0 80 80" height="80px" id="Icons" version="1.1" viewBox="0 0 80 80" width="80px" xml:space="preserve" xmlns="http://www.w3.org/2000/svg" xmlns:xlink="http://www.w3.org/1999/xlink"><g><rect height="4.996" transform="matrix(0.7071 -0.7071 0.7071 0.7071 -8.8063 21.2604)" width="12" x="15.26" y="18.762"/><rect height="12" transform="matrix(0.7071 -0.7071 0.7071 0.7071 2.1714 47.7627)" width="4.996" x="56.242" y="15.26"/><path d="M42.5,21.162V16h-5v5.162C27.083,22.4,19,31.249,19,42c0,4.897,1.69,9.392,4.501,12.964l-3.653,3.653l3.536,3.536   l3.653-3.653C30.608,61.309,35.103,63,40,63s9.392-1.69,12.964-4.501l3.653,3.653l3.536-3.536l-3.653-3.653   C59.31,51.392,61,46.897,61,42C61,31.249,52.917,22.4,42.5,21.162z M24,42c0-8.822,7.177-16,16-16s16,7.177,16,16s-7.177,16-16,16   S24,50.822,24,42z"/><polygon points="42.5,30.998 37.5,30.998 37.5,43.145 43.619,49.264 47.154,45.729 42.5,41.074  "/></g></svg>