<?xml version="1.0" ?><svg height="512" id="svg2" version="1.1" width="512" xmlns="http://www.w3.org/2000/svg" xmlns:cc="http://creativecommons.org/ns#" xmlns:dc="http://purl.org/dc/elements/1.1/" xmlns:inkscape="http://www.inkscape.org/namespaces/inkscape" xmlns:rdf="http://www.w3.org/1999/02/22-rdf-syntax-ns#" xmlns:sodipodi="http://sodipodi.sourceforge.net/DTD/sodipodi-0.dtd" xmlns:svg="http://www.w3.org/2000/svg"><defs id="defs4"/><g id="layer1" transform="translate(0,-540.36218)"><g id="g4305"><g id="g4345" transform="translate(28,-40.00001)"><g id="text2994" style="font-size:550px;font-style:normal;font-variant:normal;font-weight:normal;font-stretch:normal;text-align:start;line-height:125%;letter-spacing:0px;word-spacing:0px;writing-mode:lr-tb;text-anchor:start;fill:#222222;fill-opacity:1;stroke:none;font-family:Ubuntu;-inkscape-font-specification:Ubuntu"><g id="text3769" style="fill:#222222;font-family:Ubuntu;-inkscape-font-specification:Ubuntu"><path d="m 217.8201,967.5343 c 28.23164,5e-5 48.03193,-4.49264 59.40094,-13.47809 11.3686,-8.98531 17.053,-20.44364 17.05322,-34.375 -2.2e-4,-10.26091 -2.47596,-19.05887 -7.42721,-26.39389 -4.95169,-7.33476 -11.55085,-13.75209 -19.79752,-19.25201 -8.24705,-5.49963 -17.78073,-10.4483 -28.60107,-14.84604 -10.82067,-4.39742 -21.90973,-8.61596 -33.26722,-12.65564 -10.99967,-4.02814 -21.90969,-8.51804 -32.7301,-13.4697 -10.8206,-4.95128 -20.4466,-11.00215 -28.87802,-18.15261 -8.43156,-7.15006 -15.30487,-15.76618 -20.61996,-25.84839 -5.31519,-10.08175 -7.97276,-22.45764 -7.97272,-37.12769 -4e-5,-26.03832 7.79083,-47.39679 23.37265,-64.07547 15.58168,-16.67801 38.22138,-27.22157 67.91916,-31.63071 l 0,-63.24462 45.65429,0 0,61.59973 c 16.13547,0.73889 31.16892,2.75584 45.10041,6.05087 13.93103,3.29575 24.93058,6.41489 32.99865,9.35745 l -10.45684,42.88483 c -8.79541,-3.28949 -19.79215,-6.67719 -32.99027,-10.16312 -13.19854,-3.48529 -29.70065,-5.2281 -49.50638,-5.22842 -21.99924,3.2e-4 -38.95734,4.21607 -50.87433,12.64725 -11.91721,8.4318 -17.87576,20.3517 -17.87567,35.75973 -9e-5,8.42617 1.74271,15.57363 5.22843,21.44241 3.48551,5.86929 8.5265,11.09491 15.12298,15.67688 6.59626,4.58245 14.38713,8.70588 23.37265,12.3703 8.98525,3.66488 18.97771,7.51696 29.97742,11.55625 14.30035,5.49439 27.86795,11.17599 40.70282,17.04483 12.83445,5.86923 24.10814,12.92717 33.82111,21.17386 9.71247,8.24703 17.50335,18.05486 23.37265,29.42352 5.86876,11.36895 8.80328,25.12117 8.80355,41.25671 -2.7e-4,26.02751 -7.88346,47.01671 -23.64959,62.96769 -15.76664,15.95105 -40.14914,25.94629 -73.14759,29.98579 l 0,70.9488 -45.65429,0 0,-69.3039 c -25.66946,-0.7385 -46.56915,-3.5807 -62.69913,-8.5266 -16.13012,-4.94586 -28.22906,-9.62318 -36.29684,-14.03198 l 13.74664,-41.23993 c 10.99949,5.13618 24.20062,9.90302 39.60342,14.30054 15.40263,4.39763 34.4672,6.59642 57.19376,6.59637 z" id="path3774" style=""/></g></g></g></g></g></svg>