<svg height="512pt" viewBox="-83 0 512 512" width="512pt" xmlns="http://www.w3.org/2000/svg"><path d="m336.414062 462.710938h-16.757812l-40.460938-95.355469h10.089844c3.230469 0 6.257813-1.558594 8.136719-4.183594 1.875-2.625 2.371094-5.996094 1.328125-9.050781l-10.007812-29.289063c-1.382813-4.046875-5.183594-6.765625-9.460938-6.765625h-16.058594l-16.84375-70.792968h4.335938c3.226562 0 6.257812-1.558594 8.132812-4.183594 1.878906-2.625 2.375-5.996094 1.332032-9.050782l-10.007813-29.292968c-1.382813-4.046875-5.1875-6.765625-9.460937-6.765625h-101.335938l23.101562-148.121094h21.453126l8.472656 54.316406c.851562 5.457031 5.960937 9.179688 11.421875 8.339844 5.457031-.851563 9.191406-5.964844 8.339843-11.421875l-7.992187-51.230469h1.074219c5.523437 0 10-4.480469 10-10 0-5.523437-4.476563-10-10-10h-22.039063v-19.863281c0-5.523438-4.476562-10-10-10-5.523437 0-10 4.476562-10 10v19.863281h-22.042969c-5.519531 0-10 4.476563-10 10 0 5.519531 4.480469 10 10 10h1.074219l-23.105469 148.117188h-13.425781c-4.277343 0-8.082031 2.71875-9.464843 6.765625l-10.003907 29.292968c-1.042969 3.058594-.546875 6.425782 1.328125 9.050782 1.878906 2.625 4.90625 4.183594 8.136719 4.183594h4.332031l-16.839844 70.792968h-16.058593c-4.277344 0-8.082031 2.71875-9.464844 6.769532l-10.003906 29.285156c-1.046875 3.054687-.550781 6.425781 1.328125 9.050781 1.875 2.625 4.90625 4.183594 8.132812 4.183594h10.09375l-40.460937 95.355469h-16.761719c-5.523438 0-10 4.480468-10 10v29.289062c0 5.523438 4.476562 10 10 10h105.347656c5.523438 0 10-4.476562 10-10v-29.289062c0-5.523438-4.476562-10-10-10h-6.066406c6.054688-20.207032 21.410156-36.65625 41.34375-43.429688 14.605469-4.964844 30.089844-5.003906 44.765625-.109375.660156.21875 1.3125.445313 1.957031.683594 19.441406 7.121093 33.984375 23.039062 39.816406 42.855469h-6.101562c-5.523438 0-10 4.476562-10 10v29.289062c0 5.523438 4.476562 10 10 10h105.351562c5.523438 0 10-4.476562 10-10v-29.289062c0-5.523438-4.476562-10-10-10zm-223.554687-244.730469h120.699219l3.171875 9.292969h-127.046875zm7.734375 29.292969h105.226562l16.84375 70.792968h-27.621093l-12.820313-54.167968c-1.066406-4.511719-5.09375-7.695313-9.730468-7.695313h-38.570313c-4.636719 0-8.664063 3.1875-9.734375 7.695313l-12.8125 54.167968h-27.621094zm73.894531 70.792968h-42.5625l9.90625-41.863281h22.753907zm-89.140625 173.933594h-85.347656v-9.289062h85.347656zm98.878906-90.925781c-.828124-.304688-1.664062-.59375-2.507812-.878907-18.859375-6.285156-38.753906-6.234374-57.53125.148438-27.949219 9.5-49.011719 33.453125-55.570312 62.367188h-40.132813l40.464844-95.355469h84.257812c5.523438 0 10-4.476563 10-10 0-5.523438-4.476562-10-10-10h-90.769531c-.066406-.003907-.132812-.003907-.199219 0h-11.125l3.171875-9.289063h197.84375l3.171875 9.289063h-11.035156c-.117187-.003907-.238281-.003907-.355469 0h-23.703125c-5.523437 0-10 4.476562-10 10 0 5.523437 4.476563 10 10 10h17.261719l40.460938 95.355469h-40.117188c-6.347656-28.453126-26.265625-51.628907-53.585938-61.636719zm122.1875 90.925781h-85.351562v-9.289062h85.351562zm0 0"/><path d="m210.117188 162.871094c-.648438 0-1.300782-.070313-1.949219-.199219-.640625-.121094-1.269531-.320313-1.871094-.570313s-1.179687-.5625-1.730469-.921874c-.539062-.359376-1.050781-.78125-1.519531-1.238282-.460937-.460937-.878906-.972656-1.238281-1.519531-.363282-.542969-.671875-1.121094-.921875-1.730469-.25-.601562-.441407-1.230468-.570313-1.871094-.128906-.640624-.199218-1.300781-.199218-1.949218 0-.648438.070312-1.3125.199218-1.960938.128906-.628906.320313-1.261718.570313-1.871094.25-.597656.558593-1.179687.921875-1.71875.359375-.550781.777344-1.058593 1.238281-1.519531.460937-.460937.96875-.878906 1.519531-1.242187.550782-.367188 1.128906-.679688 1.730469-.929688s1.230469-.4375 1.871094-.570312c1.289062-.257813 2.617187-.257813 3.910156 0 .640625.132812 1.269531.320312 1.867187.570312.601563.25 1.183594.5625 1.722657.929688.550781.363281 1.058593.78125 1.519531 1.242187.46875.460938.878906.96875 1.25 1.519531.359375.539063.667969 1.121094.917969 1.71875.25.609376.441406 1.242188.570312 1.871094.132813.648438.203125 1.308594.203125 1.960938 0 .648437-.070312 1.308594-.203125 1.949218-.128906.640626-.320312 1.269532-.570312 1.871094-.25.609375-.558594 1.1875-.917969 1.730469-.371094.546875-.78125 1.058594-1.25 1.519531-.460938.457032-.96875.878906-1.519531 1.238282-.539063.359374-1.121094.671874-1.722657.921874-.597656.25-1.226562.449219-1.867187.570313-.652344.128906-1.300781.199219-1.960937.199219zm0 0"/></svg>