<?xml version="1.0" encoding="iso-8859-1"?>
<!-- Generator: Adobe Illustrator 19.0.0, SVG Export Plug-In . SVG Version: 6.00 Build 0)  -->
<svg version="1.1" id="Capa_1" xmlns="http://www.w3.org/2000/svg" xmlns:xlink="http://www.w3.org/1999/xlink" x="0px" y="0px"
	 viewBox="0 0 512 512" style="enable-background:new 0 0 512 512;" xml:space="preserve">
<g>
	<g>
		<path d="M256,59.999c-5.52,0-10,4.48-10,10s4.48,10,10,10s10-4.48,10-10S261.52,59.999,256,59.999z"/>
	</g>
</g>
<g>
	<g>
		<path d="M494.08,235.939c-11.085-4.922-23.521-2.964-32.439,5.098c-48.798,43.922-62.868,46.311-116.053,46.436
			c-1.921-20.021-10.52-38.89-24.462-53.524c4.493-13.162,16.261-33.346,45.747-29.703c10.453,1.282,21.309,10.769,22.068,19.229
			c0.015,0.366,0.045,0.736,0.089,1.105c0.799,6.82,6.642,12.962,13.599,14.297c2.827,0.549,8.539,0.667,14.988-4.691
			c7.393-6.134,15.813-19.02,17.27-36.776c3.482-41.897-30.411-74.299-70.323-75.196c-19.929-0.442-39.314,8.347-54.757,23.348
			c2.191-16.104,3.364-30.646,3.364-42.65c0-61.045-49.315-99.271-51.414-100.868c-3.51-2.67-8.352-2.727-11.919-0.143
			c-2.108,1.525-51.617,38.088-51.617,101.011c0,13.361,1.316,28.035,3.279,42.487c-15.411-14.899-34.719-23.626-54.574-23.175
			c-39.554,0.889-73.834,32.931-70.321,75.186c1.461,17.787,9.885,30.665,17.265,36.773c14.219,11.815,28.262,0.05,28.681-10.704
			c0.754-8.453,11.608-17.942,22.063-19.232c29.759-3.654,41.462,16.846,45.881,30.122c-13.714,14.573-22.176,33.296-24.08,53.113
			c-51.876-0.071-66.905-2.226-116.035-46.436c-8.959-8.082-21.398-10.05-32.464-5.127C6.864,240.83,0,251.387,0,263.469v95.95
			c0,99.818,51.645,152.58,149.35,152.58c50.098,0,86.771-17.879,106.494-35.922c16.465,16.106,47.551,35.922,100.807,35.922
			c97.235,0,155.349-51.983,155.349-152.58v-95.95C512,251.397,505.134,240.847,494.08,235.939z M296.986,212.987
			c1.123-4.01,2.247-8.02,3.362-12.113c9.034-34.189,35.307-58.679,62.741-58.679c0.341,0,0.686,0.004,1.026,0.011
			c27.382,0.616,53.428,22.426,50.838,53.556c-0.81,9.874-4.528,16.38-7.225,19.888c-4.797-16.707-22.488-29.302-38.416-31.255
			c-33.719-4.155-54.402,14.104-64.352,36.137c-2.803-1.824-5.696-3.497-8.683-4.994
			C296.515,214.688,296.748,213.837,296.986,212.987z M255.578,23.196c11.921,11.358,37.592,40.388,37.592,79.714
			c0,25.926-5.912,64.835-15.955,105.633c-3.687-0.896-7.429-1.55-11.215-1.97v-96.574c0-5.522-4.478-10-10-10
			c-5.522,0-10,4.478-10,10v96.574c-3.995,0.444-7.944,1.152-11.834,2.126c-8.098-32.902-15.946-75.413-15.946-105.791
			C218.22,62.471,243.684,34.196,255.578,23.196z M142.165,184.395c-15.932,1.966-33.614,14.563-38.405,31.262
			c-2.692-3.499-6.411-10.001-7.224-19.896c-2.557-30.73,23.025-52.916,50.837-53.544c0.343-0.007,0.685-0.011,1.027-0.011
			c27.438,0,53.707,24.49,62.754,58.762c1.019,3.726,2.032,7.453,3.046,11.182c0.332,1.219,0.665,2.438,0.997,3.657
			c-2.948,1.503-5.798,3.176-8.557,4.994C196.738,198.606,176.047,180.224,142.165,184.395z M256,225.999
			c35.754,0,65.338,26.903,69.49,61.807c-6.724,0.551-13.302,1.809-19.697,3.759c-2.253-25.5-23.718-45.566-49.793-45.566
			c-26.084,0-47.553,20.079-49.794,45.591c-6.404-1.941-13.017-3.207-19.697-3.77C190.661,252.922,220.248,225.999,256,225.999z
			 M286,295.999c0,1.46-0.117,2.916-0.325,4.356c-11.699,6.811-21.829,16.058-29.679,27.02
			c-7.847-10.948-17.987-20.206-29.678-27.022c-0.207-1.43-0.318-2.884-0.318-4.354c0-16.542,13.458-30,30-30
			S286,279.457,286,295.999z M492,359.419c0,109.579-73.603,132.58-135.349,132.58c-54.703,0-81.684-23.092-92.897-36.856
			c-1.898-2.33-4.745-3.683-7.751-3.684c-0.001,0-0.001,0-0.002,0c-3.005,0-5.852,1.352-7.75,3.681
			c-11.163,13.69-44.555,36.859-98.901,36.859C62.944,491.999,20,448.083,20,359.419v-95.95c0-6.116,4.623-8.647,6.04-9.277
			c1.424-0.632,6.416-2.38,10.951,1.711c28.78,25.898,47.57,38.504,67.015,44.961c19.983,6.636,40.145,6.625,70.643,6.616
			c12.283,0,23.886,0.893,38.272,8.314c14.919,7.706,26.991,20.336,33.994,35.563c1.632,3.549,5.18,5.822,9.085,5.822
			s7.454-2.273,9.085-5.821c7.174-15.6,19.589-28.4,34.965-36.048c12.411-6.184,23.302-7.82,35.94-7.82
			c0.066,0,0.13-0.009,0.195-0.01c62.655,0,81.576-0.041,138.85-51.592c4.49-4.058,9.499-2.304,10.928-1.671
			c1.416,0.629,6.037,3.155,6.037,9.252V359.419z"/>
	</g>
</g>
<g>
	<g>
		<path d="M442,341.999h-66c-24.029,0-46.63,9.36-63.644,26.361C295.36,385.369,286,407.97,286,431.999c0,5.522,4.478,10,10,10h66
			c24.029,0,46.63-9.36,63.644-26.361C442.64,398.629,452,376.029,452,351.999C452,346.477,447.523,341.999,442,341.999z
			 M411.502,401.496c-13.231,13.222-30.811,20.503-49.502,20.503h-55.295c2.119-14.899,8.964-28.659,19.793-39.497
			C339.73,369.28,357.31,361.999,376,361.999h55.295C429.176,376.899,422.331,390.658,411.502,401.496z"/>
	</g>
</g>
<g>
	<g>
		<path d="M136,341.999H70c-5.522,0-10,4.478-10,10c0,49.626,40.374,90,90,90h66c5.522,0,10-4.478,10-10
			C226,382.373,185.626,341.999,136,341.999z M150,421.999c-35.203,0-64.421-26.122-69.288-60H136c35.203,0,64.421,26.122,69.288,60
			H150z"/>
	</g>
</g>
<g>
</g>
<g>
</g>
<g>
</g>
<g>
</g>
<g>
</g>
<g>
</g>
<g>
</g>
<g>
</g>
<g>
</g>
<g>
</g>
<g>
</g>
<g>
</g>
<g>
</g>
<g>
</g>
<g>
</g>
</svg>
