<svg height="512pt" viewBox="0 0 512 512" width="512pt" xmlns="http://www.w3.org/2000/svg"><path d="m507.679688 288.792969c-25.046876-17.277344-54.605469-25.320313-83.878907-24.007813v-21.015625h6.882813c10.117187 0 19.566406-5.003906 25.285156-13.386719 5.765625-8.449218 6.976562-19.183593 3.242188-28.710937l-16.886719-43.097656c-4.644531-11.859375-15.84375-19.523438-28.523438-19.523438-12.683593 0-23.882812 7.664063-28.527343 19.523438l-13.054688 33.316406-5.019531-12.808594c-4.644531-11.859375-15.84375-19.523437-28.523438-19.523437-12.683593 0-23.878906 7.664062-28.527343 19.523437l-16.882813 43.097657c-3.734375 9.53125-2.523437 20.261718 3.242187 28.710937 5.714844 8.382813 15.167969 13.386719 25.28125 13.386719h6.886719v38.511718l-36.046875 21.792969-45.445312-27.191406c-25.765625-15.417969-56.386719-21.984375-86.214844-18.484375-12.3125 1.445312-24.402344 4.574219-35.9375 9.308594-5.265625 2.15625-10.386719 4.632812-15.226562 7.355468l-19.304688 10.871094v-32.203125c2.300781.46875 4.660156.71875 7.0625.71875.789062 0 1.582031-.023437 2.378906-.078125 17.132813-1.121094 31.132813-14.859375 32.566406-31.957031 1.046876-12.472656-4.671874-24.648437-14.925781-31.777344-2.628906-1.828125-4.15625-5.070312-3.984375-8.464843.035156-.683594.046875-1.371094.039063-2.078126-.210938-18.265624-15.265625-32.925781-33.523438-32.746093-18.058593.207031-32.75 15.074219-32.75 33.136719 0 .46875.007813.933593.027344 1.390624.152344 3.652344-1.332031 6.929688-3.976563 8.765626-10.25 7.128906-15.96875 19.304687-14.921874 31.773437 1.433593 17.097656 15.4375 30.835937 32.566406 31.957031 3.21875.210938 6.382812-.023437 9.441406-.652344v43.472657l-65.40625 36.824219c-3.148438 1.773437-5.09375 5.101562-5.09375 8.714843v138.761719c0 5.523438 4.476562 10 10 10h153.421875 338.578125c5.523438 0 10-4.476562 10-10v-204.976562c0-3.289063-1.617188-6.363282-4.320312-8.230469zm-445.3125-33.871094c-7.335938-.484375-13.332032-6.359375-13.945313-13.675781-.457031-5.457032 1.9375-10.570313 6.410156-13.679688 8.289063-5.765625 12.980469-15.492187 12.542969-26.023437-.007812-.183594-.011719-.371094-.011719-.554688 0-7.164062 5.820313-13.054687 12.980469-13.136719.046875 0 .097656-.003906.144531-.003906 7.0625 0 13.066407 5.914063 13.148438 12.964844.003906.289062 0 .570312-.015625.851562v.003907c-.523438 10.390625 4.164062 20.070312 12.542968 25.894531 4.476563 3.113281 6.871094 8.226562 6.414063 13.683594-.613281 7.316406-6.609375 13.191406-13.945313 13.675781-2.890624.183594-5.671874-.441406-8.132812-1.769531v-15.621094c0-5.519531-4.476562-10-10-10s-10 4.480469-10 10v15.625c-2.453125 1.324219-5.234375 1.953125-8.132812 1.765625zm324.644531-45.953125 16.882812-43.097656c2.480469-6.328125 8.207031-6.820313 9.90625-6.820313 1.695313 0 7.425781.492188 9.902344 6.820313l16.886719 43.097656c1.339844 3.417969.921875 7.117188-1.144532 10.144531-2.019531 2.957031-5.210937 4.65625-8.761718 4.65625h-6.882813v-22.875c0-5.523437-4.480469-10-10-10-5.523437 0-10 4.476563-10 10v22.875h-6.886719c-3.550781 0-6.742187-1.699219-8.761718-4.65625-2.066406-3.027343-2.480469-6.726562-1.140625-10.144531zm-65.222657 35.308594c-3.550781 0-6.742187-1.699219-8.761718-4.660156-2.066406-3.023438-2.480469-6.722657-1.140625-10.140626l16.882812-43.101562c2.480469-6.324219 8.207031-6.816406 9.90625-6.816406 1.695313 0 7.425781.492187 9.902344 6.816406l16.886719 43.097656c1.339844 3.421875.921875 7.117188-1.144532 10.144532-2.019531 2.960937-5.210937 4.660156-8.761718 4.660156h-6.886719v-22.875c0-5.523438-4.476563-10-10-10-5.519531 0-10 4.476562-10 10v22.875zm26.886719 20h6.882813c10.117187 0 19.566406-5.003906 25.285156-13.386719 2-2.933594 3.441406-6.148437 4.328125-9.484375 3.671875 1.53125 7.652344 2.363281 11.742187 2.363281h6.886719v23.402344c-15.503906 3.011719-30.617187 8.710937-44.589843 17.15625l-10.535157 6.371094zm20.882813 37.167968c37.765625-22.835937 85.269531-22.308593 122.441406.96875v141.472657l-34.332031-20.542969c-.003907-.003906-.007813-.007812-.011719-.007812l-74.597656-44.640626-71.003906-42.488281zm-206.175782 74.472657c-5.523437 0-10 4.476562-10 10v40.261719c-18.0625-4.484376-31.488281-20.832032-31.488281-40.261719 0-22.875 18.609375-41.488281 41.488281-41.488281 22.875 0 41.488282 18.613281 41.488282 41.488281 0 19.429687-13.429688 35.777343-31.488282 40.261719v-40.261719c0-5.523438-4.480468-10-10-10zm79.414063 116.082031 33.570313-20.429688c4.71875-2.871093 6.21875-9.023437 3.347656-13.742187-.179688-.292969-.375-.574219-.578125-.84375-.804688-1.0625-1.792969-1.925781-2.890625-2.570313-.132813-.078124-.273438-.148437-.410156-.21875-.164063-.085937-.328126-.179687-.496094-.257812-2.917969-1.335938-6.421875-1.246094-9.367188.546875l-61.648437 37.515625h-30.941407v-45.417969c29.164063-4.792969 51.488282-30.164062 51.488282-60.660156 0-33.90625-27.585938-61.488281-61.488282-61.488281-33.90625 0-61.488281 27.582031-61.488281 61.488281 0 30.496094 22.324219 55.867187 51.488281 60.660156v45.417969h-43.734374l13.617187-13.617188c3.90625-3.902343 3.90625-10.234374 0-14.140624s-10.234375-3.90625-14.144531 0l-14.109375 14.109374-13.28125-13.285156c-3.90625-3.902344-10.238281-3.902344-14.144531 0-3.90625 3.90625-3.90625 10.238282 0 14.144532l12.789062 12.789062h-60.375v-122.917969l65.253906-36.738281c.011719-.007812.023438-.015625.035156-.019531l34.328126-19.328125c4.121093-2.320313 8.496093-4.433594 13.003906-6.28125 9.851562-4.042969 20.171875-6.714844 30.679687-7.949219 25.46875-2.984375 51.613281 2.617187 73.613281 15.78125l149.402344 89.402344c-13.269531.105469-26.542968 2.148437-39.222656 6.058593-5.277344 1.628907-8.238281 7.226563-6.609375 12.503907 1.625 5.277343 7.226563 8.234375 12.503906 6.609375 7.902344-2.4375 15.984375-4.007813 24.101563-4.722656 3.039062-.269532 6.085937-.417969 9.136718-.449219 21.328126-.210938 42.546876 5.40625 61.171876 16.550781.003906.003906.003906.003906.007812.003906l44.59375 26.6875v24.808594zm0 0"/><path d="m303.566406 70.6875c5.523438 0 10-4.476562 10-10 0-13.421875 10.921875-24.34375 24.34375-24.34375 4.699219 0 9.265625 1.347656 13.199219 3.894531 4.53125 2.933594 10.574219 1.742188 13.652344-2.695312 7.617187-10.984375 20.125-17.542969 33.457031-17.542969 18.984375 0 34.976562 13.074219 39.445312 30.6875h-76.554687c-5.519531 0-10 4.476562-10 10s4.480469 10 10 10h87.796875c5.523438 0 10-4.476562 10-10 0-33.460938-27.222656-60.6875-60.6875-60.6875-16.9375 0-32.976562 7.089844-44.375 19.304688-5.054688-1.949219-10.441406-2.957032-15.933594-2.957032-24.449218 0-44.34375 19.890625-44.34375 44.34375 0 5.519532 4.476563 9.996094 10 9.996094zm0 0"/><path d="m66.3125 118.371094h52.726562c5.523438 0 10-4.476563 10-10 0-5.519532-4.476562-10-10-10h-41.550781c4.515625-18.816406 21.472657-32.84375 41.644531-32.84375 16.792969 0 32.113282 9.902344 39.039063 25.222656 1.476563 3.269531 4.597656 5.5 8.171875 5.835938 3.570312.332031 7.058594-1.269532 9.121094-4.207032 4.679687-6.660156 12.316406-10.636718 20.429687-10.636718 13.289063 0 24.945313 12.445312 24.945313 26.628906 0 5.523437 4.480468 10 10 10h25.675781c5.519531 0 10-4.476563 10-10 0-5.523438-4.480469-10-10-10h-16.761719c-4.554687-20.660156-22.792968-36.628906-43.859375-36.628906-9.691406 0-19.003906 3.148437-26.632812 8.757812-11.726563-15.492188-30.222657-24.972656-50.128907-24.972656-34.640624 0-62.824218 28.191406-62.824218 62.84375.003906 5.523437 4.480468 10 10.003906 10zm0 0"/><path d="m319.550781 435.382812c-1.613281-3.875-5.574219-6.390624-9.773437-6.164062-4.152344.226562-7.816406 3.105469-9.027344 7.082031-1.214844 3.988281.253906 8.46875 3.617188 10.9375 3.285156 2.414063 7.757812 2.597657 11.230468.457031 4.105469-2.527343 5.804688-7.867187 3.953125-12.3125zm0 0"/></svg>