<?xml version="1.0" encoding="iso-8859-1"?>
<!-- Generator: Adobe Illustrator 19.0.0, SVG Export Plug-In . SVG Version: 6.00 Build 0)  -->
<svg version="1.1" id="Layer_1" xmlns="http://www.w3.org/2000/svg" xmlns:xlink="http://www.w3.org/1999/xlink" x="0px" y="0px"
	 viewBox="0 0 512 512" style="enable-background:new 0 0 512 512;" xml:space="preserve">
<g>
	<g>
		<path d="M366.326,2.877c-16.847-6.426-35.491-1.883-47.497,11.572L128.884,227.314c-14.592,16.353-14.592,41.019,0.001,57.372
			l189.944,212.865c8.386,9.399,20.012,14.448,32.004,14.448c5.172,0,10.415-0.938,15.493-2.874
			c16.847-6.425,27.734-22.227,27.734-40.259V43.135C394.06,25.104,383.175,9.302,366.326,2.877z M373.661,468.866
			c0,11.524-7.543,18.505-14.603,21.197c-7.058,2.688-17.337,2.506-25.009-6.094L144.105,271.103
			c-7.684-8.61-7.684-21.597-0.001-30.207L334.049,28.032l0,0c7.673-8.597,17.951-8.785,25.009-6.093
			c7.059,2.692,14.603,9.674,14.603,21.196V468.866z"/>
	</g>
</g>
<g>
	<g>
		<path d="M284.866,378.748l-4.669-5.234c-3.749-4.201-10.197-4.571-14.402-0.82c-4.202,3.752-4.571,10.199-0.82,14.402l4.67,5.234
			c2.016,2.258,4.809,3.409,7.615,3.409c2.415,0,4.842-0.854,6.787-2.589C288.249,389.398,288.617,382.951,284.866,378.748z"/>
	</g>
</g>
<g>
	<g>
		<path d="M256.731,347.219l-85.937-96.307c-3.75-4.202-10.197-4.571-14.401-0.819c-4.202,3.75-4.57,10.198-0.819,14.401
			l85.937,96.307c2.016,2.258,4.808,3.409,7.614,3.409c2.415,0,4.842-0.854,6.787-2.59
			C260.114,357.87,260.482,351.422,256.731,347.219z"/>
	</g>
</g>
<g>
</g>
<g>
</g>
<g>
</g>
<g>
</g>
<g>
</g>
<g>
</g>
<g>
</g>
<g>
</g>
<g>
</g>
<g>
</g>
<g>
</g>
<g>
</g>
<g>
</g>
<g>
</g>
<g>
</g>
</svg>
