<?xml version="1.0" encoding="iso-8859-1"?>
<!-- Generator: Adobe Illustrator 19.0.0, SVG Export Plug-In . SVG Version: 6.00 Build 0)  -->
<svg version="1.1" id="Layer_1" xmlns="http://www.w3.org/2000/svg" xmlns:xlink="http://www.w3.org/1999/xlink" x="0px" y="0px"
	 viewBox="0 0 511.999 511.999" style="enable-background:new 0 0 511.999 511.999;" xml:space="preserve">
<g>
	<g>
		<path d="M412.34,368.276c54.952,0,99.659-44.707,99.659-99.66c0-27.648-11.256-53.569-31.159-72.362
			c7.631-15.978,11.633-33.561,11.633-51.346c0-65.73-53.476-119.207-119.206-119.207c-64.094,0-116.535,50.846-119.108,114.319
			c-23.361,10.124-43.193,27.844-55.972,49.926c-6.318-1.224-12.839-1.872-19.509-1.872c-56.463,0-102.4,45.937-102.4,102.4
			c0,52.937,40.378,96.621,91.951,101.87v73.681H76.031c-5.77,0-10.449,4.679-10.449,10.449c0,5.77,4.679,10.449,10.449,10.449
			h348.62c5.771,0,10.449-4.679,10.449-10.449c0-5.77-4.679-10.449-10.45-10.449h-61.755v-97.748H412.34z M178.678,262.53
			c-5.771,0-10.449,4.678-10.449,10.449v55.329c0,0.003,0,0.007,0,0.01v42.964c-40.021-5.148-71.053-39.41-71.053-80.809
			c0-44.941,36.561-81.502,81.502-81.502s81.502,36.561,81.502,81.502c0,41.399-31.032,75.661-71.053,80.809v-38.64l37.197-37.196
			c4.08-4.08,4.08-10.697,0-14.778c-4.08-4.078-10.695-4.079-14.778,0l-22.419,22.419v-30.109
			C189.127,267.208,184.449,262.53,178.678,262.53z M341.997,466.024h-38.836l14.671-14.671c4.08-4.08,4.08-10.697,0-14.778
			c-4.081-4.079-10.696-4.079-14.778,0l-14.671,14.671v-20.459c0-5.77-4.679-10.449-10.449-10.449
			c-5.77,0-10.449,4.679-10.449,10.449v20.459l-14.671-14.671c-4.081-4.079-10.696-4.079-14.778,0c-4.08,4.08-4.08,10.697,0,14.778
			l14.673,14.671h-63.583v-73.68c25.989-2.646,49.131-15.054,65.699-33.485c14.667,6.245,30.25,9.417,46.443,9.417h40.729V466.024z
			 M352.447,149.748c-5.77,0-10.449,4.678-10.449,10.449v47.831L329.83,195.86c2.328-4.573,3.651-9.74,3.651-15.214
			c0-18.55-15.09-33.641-33.641-33.641c-18.55,0-33.641,15.09-33.641,33.641c0,18.55,15.09,33.641,33.641,33.641
			c5.472,0,10.639-1.322,15.212-3.65l26.946,26.945v41.352c0,0.003,0,0.007,0,0.01v23.195l-24.159-24.158
			c-4.081-4.079-10.698-4.079-14.778,0c-4.08,4.08-4.08,10.697,0,14.778l38.937,38.935v15.684h-40.729
			c-11.709,0-23.027-2.002-33.784-5.963c8.645-15.011,13.592-32.41,13.592-50.941c0-42.227-25.695-78.564-62.271-94.204
			c11.645-18.002,29.102-32.049,49.292-39.304c4.223-1.518,7.005-5.562,6.913-10.049c-0.007-0.332-0.054-1.67-0.054-2.009
			c0-54.208,44.101-98.309,98.309-98.309c54.207,0,98.308,44.101,98.308,98.309c0,17.049-4.459,33.869-12.892,48.645
			c-2.557,4.479-1.463,10.154,2.577,13.362c18.965,15.06,29.842,37.551,29.842,61.701c0,43.43-35.333,78.762-78.761,78.762h-49.445
			v-20.007c0-0.003,0-0.007,0-0.01V283.27l37.197-37.196c4.08-4.08,4.08-10.697,0-14.778c-4.079-4.078-10.693-4.079-14.778,0
			l-22.419,22.418V233.26c0-0.003,0-0.007,0-0.01v-73.053C362.896,154.426,358.217,149.748,352.447,149.748z M312.583,180.648
			c0,3.222-1.212,6.161-3.191,8.406c-0.205,0.176-0.409,0.351-0.602,0.544c-0.194,0.194-0.37,0.398-0.545,0.603
			c-2.245,1.978-5.183,3.189-8.404,3.189c-7.027,0-12.742-5.717-12.742-12.743c0-7.027,5.717-12.742,12.742-12.742
			C306.867,167.905,312.583,173.622,312.583,180.648z"/>
	</g>
</g>
<g>
	<g>
		<path d="M40.504,466.024H10.957c-5.77,0-10.449,4.679-10.449,10.449c0,5.77,4.679,10.449,10.449,10.449h29.547
			c5.77,0,10.449-4.679,10.449-10.449C50.952,470.703,46.274,466.024,40.504,466.024z"/>
	</g>
</g>
<g>
	<g>
		<path d="M501.043,466.024h-40.866c-5.77,0-10.449,4.679-10.449,10.449c0,5.77,4.679,10.449,10.449,10.449h40.866
			c5.77,0,10.449-4.679,10.449-10.449C511.492,470.703,506.813,466.024,501.043,466.024z"/>
	</g>
</g>
<g>
	<g>
		<path d="M148.764,62.041c-10.117-22.362-32.393-36.964-57.378-36.964c-26.257,0-49.403,16.148-58.713,40.1
			C14.161,68.242,0,84.362,0,103.729c0,5.771,4.678,10.449,10.449,10.449h161.872c5.77,0,10.449-4.679,10.449-10.449
			C182.77,83.089,168.317,65.969,148.764,62.041z M24.208,93.28c3.294-4.671,8.73-7.729,14.868-7.729
			c0.299,0,0.595,0.014,0.891,0.027c4.962,0.222,9.383-3.066,10.602-7.873C55.3,59.023,72.084,45.975,91.386,45.975
			c18.232,0,34.307,11.634,39.999,28.95c1.369,4.166,5.195,7.033,9.579,7.18c7.935,0.264,14.705,4.699,18.253,11.175H24.208z"/>
	</g>
</g>
<g>
	<g>
		<path d="M409.396,86.672c-18.55,0-33.641,15.09-33.641,33.641c-0.001,18.549,15.09,33.641,33.641,33.641
			s33.641-15.09,33.641-33.641C443.037,101.762,427.946,86.672,409.396,86.672z M409.396,133.054
			c-7.027,0-12.743-5.717-12.743-12.743s5.716-12.743,12.743-12.743c7.027,0,12.743,5.717,12.743,12.743
			S416.422,133.054,409.396,133.054z"/>
	</g>
</g>
<g>
	<g>
		<path d="M433.937,251.353c-18.55,0-33.64,15.09-33.64,33.64c0,18.55,15.09,33.641,33.64,33.641
			c18.55,0,33.641-15.09,33.641-33.641C467.577,266.443,452.487,251.353,433.937,251.353z M433.937,297.736
			c-7.027,0-12.743-5.717-12.743-12.742c0-7.027,5.717-12.743,12.743-12.743c7.027,0,12.743,5.716,12.743,12.743
			S440.963,297.736,433.937,297.736z"/>
	</g>
</g>
<g>
</g>
<g>
</g>
<g>
</g>
<g>
</g>
<g>
</g>
<g>
</g>
<g>
</g>
<g>
</g>
<g>
</g>
<g>
</g>
<g>
</g>
<g>
</g>
<g>
</g>
<g>
</g>
<g>
</g>
</svg>
