<svg height="511pt" viewBox="0 -41 511.99973 511" width="511pt" xmlns="http://www.w3.org/2000/svg"><path d="m501.609375 409.714844c-5.296875.203125-10.285156-1.742188-14.035156-5.492188l-.234375-.234375c-15.128906-15.128906-39.742188-15.128906-54.871094 0l-.179688.175781c-3.550781 3.554688-8.269531 5.507813-13.292968 5.507813-.007813 0-.019532 0-.027344 0-5.03125-.007813-9.753906-1.976563-13.304688-5.546875-6.621093-6.660156-15.230468-10.609375-24.5-11.316406l-101.800781-34.859375 6.378907-24.359375h131.265624c4.402344 0 8.289063-2.878906 9.570313-7.09375 8.570313-28.203125 13.226563-57.460938 13.964844-87.339844.136719-.863281.160156-1.753906.0625-2.652344.183593-11.050781-.152344-22.183594-1.042969-33.382812-2.28125-28.675782-8.105469-57.808594-17.320312-86.808594-.042969-.144531-.085938-.292969-.136719-.4375-1.605469-5.042969-3.304688-10.078125-5.117188-15.109375-20.90625-58.03125-47.90625-94.695313-49.046875-96.230469-2.292968-3.085937-6.152344-4.5859372-9.929687-3.851562-3.773438.734375-6.796875 3.566406-7.769531 7.285156l-15.964844 61.035156c-1.398438 5.34375 1.796875 10.808594 7.144531 12.207032 5.339844 1.398437 10.804687-1.800782 12.203125-7.144532l10.242188-39.148437c9.449218 15.78125 22.894531 40.945312 34.304687 72.625 1.164063 3.222656 2.265625 6.449219 3.339844 9.675781l-89.183594 114.710938 22.082031-84.40625c1.398438-5.34375-1.800781-10.808594-7.144531-12.207032-5.339844-1.394531-10.804687 1.800782-12.203125 7.144532l-14.53125 55.535156c-2.085938-1.179688-4.339844-2.09375-6.726562-2.695313l-18.191407-4.578125c-6.910156-1.738281-14.023437-2.621094-21.144531-2.621094h-15.589844c2.945313-5.414062 4.621094-11.613281 4.621094-18.199218 0-21.058594-17.132812-38.191406-38.191406-38.191406-21.0625 0-38.195313 17.132812-38.195313 38.191406 0 8.269531 2.648438 15.925781 7.128907 22.183594-3.027344 1.566406-5.816407 3.570312-8.246094 5.957031-.019532.019531-.039063.035156-.058594.050781-.019531.019531-.039062.039062-.054688.058594-.015624.015625-.03125.027344-.046874.042968-.015626.015626-.027344.03125-.039063.042969-6.855469 6.714844-10.628906 15.6875-10.628906 25.292969v91.886719l-32.203125-11.027344c-4.027344-1.378906-8.488282-.058594-11.113282 3.296875-2.625 3.351562-2.839843 7.996094-.535156 11.578125l37.566406 58.355469c7.808594 12.125 17.527344 22.886718 28.539063 31.703125-5.984375 1.226562-12.453125-.46875-17.089844-5.101563l-.238281-.238281c-15.128906-15.128906-39.742188-15.128906-54.871094 0l-.175781.179687c-3.554687 3.550782-8.273437 5.503907-13.292969 5.503907-.011718 0-.019531 0-.027344 0-5.035156-.007813-9.757812-1.976563-13.304687-5.542969-7.324219-7.367188-17.074219-11.429688-27.457031-11.445312-.023438 0-.039063 0-.0625 0-10.363282 0-20.101563 4.035156-27.441406 11.375l-.167969.167968c-3.550781 3.550782-8.269531 5.507813-13.292969 5.507813-5.523438 0-10 4.476562-10 10 0 5.519531 4.476562 10 10 10 10.363281 0 20.105469-4.035157 27.445312-11.375l.167969-.167969c3.550781-3.554688 8.269531-5.507812 13.289063-5.507812h.03125c5.03125.007812 9.753906 1.976562 13.300781 5.546874 7.324219 7.363282 17.074219 11.429688 27.460937 11.441407h.058594c10.363282 0 20.101563-4.035157 27.433594-11.363281l.175781-.179688c7.332031-7.328125 19.257813-7.328125 26.585938 0l.238281.238281c15.128906 15.128907 39.742188 15.128907 54.871094 0 6.023437-6.042969 15.605468-7.46875 22.996094-3.085937 1.992187 1.183594 3.523437 2.757812 5.21875 4.300781 1.671874 1.519531 3.472656 2.902344 5.382812 4.113281 3.632812 2.300782 7.65625 3.984375 11.847656 4.960938 4.773438 1.109375 9.773438 1.3125 14.625.59375 6.925782-1.023438 13.394532-3.886719 18.820313-8.347656.988281-.8125 1.941406-1.675782 2.859375-2.59375l.179687-.179688c7.328125-7.328125 19.253907-7.328125 26.582031 0l.242188.238281c15.125 15.128907 39.742188 15.128907 54.867188 0 3.742187-3.757812 8.636718-5.664062 13.90625-5.664062 4.878906.113281 9.445312 2.054687 12.894531 5.523437 7.324219 7.363282 17.074219 11.429688 27.460937 11.445313h.058594c10.363281 0 20.101562-4.035157 27.433594-11.363281l.175781-.179688c7.332031-7.328125 19.253906-7.328125 26.585937 0l.238282.238281c7.269531 7.269531 17.203125 11.363281 27.453125 11.363281.5 0 1.003906-.011718 1.503906-.03125 5.519531-.214843 9.816406-4.863281 9.601563-10.382812-.214844-5.511719-4.871094-9.816406-10.382813-9.597656zm-251.339844-61.730469v-50.882813c.902344-.398437 1.792969-.835937 2.660157-1.332031 3.976562-2.285156 7.238281-5.457031 9.582031-9.246093h14.859375l-16.984375 64.925781zm-75.101562-97.28125v-27.167969c0-.792968.058593-1.570312.175781-2.335937l38.417969 35.671875c1.222656 1.132812 2.703125 1.945312 4.316406 2.359375l23.074219 5.929687c1.878906.480469 3.453125 1.664063 4.4375 3.335938.980468 1.671875 1.25 3.621094.761718 5.496094-.496093 1.890624-1.699218 3.46875-3.390624 4.441406-1.039063.59375-2.179688.914062-3.335938.957031-.296875.011719-.59375 0-.890625-.023437-.128906-.011719-.257813-.03125-.386719-.050782-.253906-.035156-.511718-.082031-.765625-.148437-.054687-.015625-.113281-.023438-.167969-.039063l-25.988281-7.230468-.703125-.199219-17.941406-10.59375zm234.335937 62.886719h-118.539062l7.578125-28.96875 121.46875-33.699219c-1.355469 21.335937-4.851563 42.285156-10.507813 62.667969zm10.125-108.878906c.671875 8.46875 1.003906 16.898437 1.019532 25.28125l-103.886719 28.820312 91.78125-118.050781c5.679687 21.425781 9.402343 42.828125 11.085937 63.949219zm-137.023437 61.8125h-16.601563c-.605468-2.839844-1.664062-5.59375-3.179687-8.167969-2.949219-5.015625-7.320313-8.867188-12.554688-11.140625v-5.804688h.980469l30.464844 6.375c.09375.019532.1875.039063.285156.058594 1.796875.355469 3.589844.519531 5.355469.511719zm-11.878907-56.40625 18.191407 4.582031c1.8125.453125 3.335937 1.589843 4.285156 3.195312.945313 1.601563 1.207031 3.472657.738281 5.269531-.007812.027344-.011718.050782-.019531.078126-.957031 3.527343-4.5 5.707031-8.085937 4.96875-.0625-.011719-.128907-.023438-.191407-.035157l-31.308593-6.554687c-.675782-.140625-1.363282-.210938-2.050782-.210938h-12.015625c-5.523437 0-10 4.476563-10 10v10.300782l-4.757812-1.222657-34.878907-32.386719h63.832032c5.480468 0 10.949218.679688 16.261718 2.015626zm-65.421874-58.40625c10.035156 0 18.195312 8.160156 18.195312 18.191406 0 10.035156-8.160156 18.195312-18.195312 18.195312-10.03125 0-18.191407-8.160156-18.191407-18.195312 0-10.03125 8.160157-18.191406 18.191407-18.191406zm-30.136719 170.558593v-48.339843l26.519531 15.660156c.527344.3125 1.085938.554687 1.660156.765625.246094.089843.488282.1875.742188.257812l26.179687 7.292969v43.230469l-17.550781-6.011719v-16.425781c0-5.523438-4.476562-10-10-10s-10 4.476562-10 10v9.578125l-12.941406-4.429688zm-9.46875 44.527344-21.988281-34.160156 22.65625 7.757812 70.660156 24.199219c.023437.011719.046875.015625.074218.023438l114.003907 39.039062c-.136719.132812-.273438.269531-.410157.40625l-.160156.160156c-7.152344 7.152344-18.675781 7.300782-26.03125.5-.183594-.167968-.375-.320312-.550781-.5l-.246094-.242187c-7.328125-7.328125-17.070312-11.363281-27.433593-11.363281-10.363282 0-20.105469 4.039062-27.417969 11.355468-4.441407 4.46875-10.824219 6.515625-17.03125 5.363282-2.90625-.542969-5.675781-1.808594-8.003907-3.628907-2.429687-1.90625-4.472656-4.207031-7.015624-5.992187-6.464844-4.550782-14.148438-7.019532-22.21875-7.03125-.019532 0-.039063 0-.058594 0-6.851563 0-13.425782 1.773437-19.21875 5.085937-11.558594-8.101562-21.714844-18.707031-29.609375-30.972656zm0 0"/><path d="m325.011719 112.488281c1.632812 3.914063 5.644531 6.417969 9.882812 6.148438 4.230469-.269531 7.890625-3.304688 8.996094-7.386719 1.078125-3.976562-.492187-8.375-3.871094-10.746094-3.253906-2.285156-7.671875-2.433594-11.054687-.332031-4.121094 2.558594-5.785156 7.839844-3.953125 12.316406zm0 0"/><path d="m84.453125 124.90625h51.148437c21.167969 0 38.390626-17.222656 38.390626-38.390625s-17.222657-38.390625-38.390626-38.390625c-5.109374 0-10.140624 1.023438-14.796874 2.96875-8.554688-11.121094-21.902344-17.894531-36.347657-17.894531-25.285156 0-45.855469 20.566406-45.855469 45.851562 0 25.285157 20.570313 45.855469 45.851563 45.855469zm0-71.707031c10.300781 0 19.613281 6.105469 23.722656 15.5625 1.257813 2.894531 3.808594 5.023437 6.882813 5.746093 3.074218.726563 6.304687-.046874 8.722656-2.078124 3.351562-2.816407 7.441406-4.304688 11.820312-4.304688 10.140626 0 18.390626 8.25 18.390626 18.390625s-8.25 18.390625-18.390626 18.390625h-51.148437c-14.253906 0-25.851563-11.597656-25.851563-25.855469 0-14.253906 11.597657-25.851562 25.851563-25.851562zm0 0"/></svg>